<svg version="1.1" id="Layer_1" x="0" y="0" viewBox="0 0 400 225" style="enable-background:new 0 0 400 225" xml:space="preserve" xmlns="http://www.w3.org/2000/svg"><style type="text/css" id="style254">.st1{fill:#345ea5}.st2{fill:#dbdbde}.st3{fill:#fff}.st4{opacity:.15}.st5{fill:#9ab7de}.st6{fill:#3d6083}.st7{opacity:.1}.st8{fill:#030403}.st9{fill:#b7b7be}.st10{fill:#46b08d}.st11{fill:#295849}</style><path id="rect556-5-7" style="opacity:.1;fill:#000;fill-opacity:1;stroke-width:.976271;paint-order:stroke fill markers;stop-color:#000" d="M188.436 19.112a5.029 5.029 0 0 0-5.04 5.041v8.977a5.029 5.029 0 0 0 5.04 5.04h4.845v9.436h.617a81.292 81.292 0 0 0-.617.03 97.55 97.55 0 0 1 .205.154 81.292 81.292 0 0 0-74.47 80.328c-.02.157-.036.316-.036.479 0 .162.014.32.034.476a81.292 81.292 0 0 0 74.441 80.326 97.55 97.55 0 0 1-.207.155 81.292 81.292 0 0 0 7.025.334 81.292 81.292 0 0 0 3.817-.094 81.292 81.292 0 0 0 1.289-.086 81.292 81.292 0 0 0 2.54-.187 81.292 81.292 0 0 0 1.573-.178 81.292 81.292 0 0 0 2.182-.27 81.292 81.292 0 0 0 1.705-.27 81.292 81.292 0 0 0 2.135-.37 81.292 81.292 0 0 0 1.564-.32 81.292 81.292 0 0 0 2.186-.489 81.292 81.292 0 0 0 1.64-.416 81.292 81.292 0 0 0 2.033-.562 81.292 81.292 0 0 0 1.65-.495 81.292 81.292 0 0 0 2.067-.683 81.292 81.292 0 0 0 1.551-.543 81.292 81.292 0 0 0 2.113-.815 81.292 81.292 0 0 0 1.442-.578 81.292 81.292 0 0 0 2.176-.965 81.292 81.292 0 0 0 1.353-.615 81.292 81.292 0 0 0 2.207-1.11 81.292 81.292 0 0 0 1.219-.62 81.292 81.292 0 0 0 3.304-1.873 81.292 81.292 0 0 0 .606-.381 81.292 81.292 0 0 0 2.633-1.666 81.292 81.292 0 0 0 1.097-.762 81.292 81.292 0 0 0 2.051-1.445 81.292 81.292 0 0 0 1.149-.873 81.292 81.292 0 0 0 1.896-1.48 81.292 81.292 0 0 0 1.17-.977 81.292 81.292 0 0 0 1.73-1.494 81.292 81.292 0 0 0 1.235-1.127 81.292 81.292 0 0 0 1.56-1.489 81.292 81.292 0 0 0 1.168-1.168 81.292 81.292 0 0 0 1.52-1.593 81.292 81.292 0 0 0 1.133-1.24 81.292 81.292 0 0 0 1.414-1.64 81.292 81.292 0 0 0 1.068-1.28 81.292 81.292 0 0 0 1.363-1.745 81.292 81.292 0 0 0 .977-1.283 81.292 81.292 0 0 0 1.494-2.123 81.292 81.292 0 0 0 .672-.97 81.292 81.292 0 0 0 1.736-2.739 81.292 81.292 0 0 0 .332-.531 81.292 81.292 0 0 0 1.893-3.34 81.292 81.292 0 0 0 .457-.896 81.292 81.292 0 0 0 1.264-2.512 81.292 81.292 0 0 0 .64-1.408 81.292 81.292 0 0 0 .907-2.045 81.292 81.292 0 0 0 .642-1.602 81.292 81.292 0 0 0 .768-1.992 81.292 81.292 0 0 0 .558-1.594 81.292 81.292 0 0 0 .676-2.043 81.292 81.292 0 0 0 .484-1.613 81.292 81.292 0 0 0 .586-2.123 81.292 81.292 0 0 0 .399-1.582 81.292 81.292 0 0 0 .482-2.143 81.292 81.292 0 0 0 .33-1.615 81.292 81.292 0 0 0 .389-2.238 81.292 81.292 0 0 0 .242-1.535 81.292 81.292 0 0 0 .291-2.366 81.292 81.292 0 0 0 .164-1.447 81.292 81.292 0 0 0 .188-2.52 81.292 81.292 0 0 0 .088-1.318 81.292 81.292 0 0 0 .093-3.814 81.292 81.292 0 0 0-.093-3.819 81.292 81.292 0 0 0-.088-1.308 81.292 81.292 0 0 0-.188-2.522 81.292 81.292 0 0 0-.164-1.466 81.292 81.292 0 0 0-.29-2.348 81.292 81.292 0 0 0-.243-1.537 81.292 81.292 0 0 0-.389-2.242 81.292 81.292 0 0 0-.328-1.598 81.292 81.292 0 0 0-.486-2.168 81.292 81.292 0 0 0-.395-1.565 81.292 81.292 0 0 0-.59-2.136 81.292 81.292 0 0 0-.478-1.59 81.292 81.292 0 0 0-.691-2.092 81.292 81.292 0 0 0-.54-1.543 81.292 81.292 0 0 0-.787-2.039 81.292 81.292 0 0 0-.63-1.572 81.292 81.292 0 0 0-.881-1.99 81.292 81.292 0 0 0-.674-1.483 81.292 81.292 0 0 0-1.236-2.455 81.292 81.292 0 0 0-.477-.933 81.292 81.292 0 0 0-1.893-3.342 81.292 81.292 0 0 0-.36-.574 81.292 81.292 0 0 0-1.694-2.676 81.292 81.292 0 0 0-.713-1.03 81.292 81.292 0 0 0-1.485-2.105 81.292 81.292 0 0 0-.916-1.205 81.292 81.292 0 0 0-1.41-1.805 81.292 81.292 0 0 0-.765-.931l5.949-5.952 5.746 5.746a4.915 4.915 0 0 0 6.967 0l2.23-2.23a4.915 4.915 0 0 0 0-6.967l-7.63-7.63-13.749-13.749a4.915 4.915 0 0 0-6.966 0l-2.231 2.23a4.915 4.915 0 0 0 0 6.968l4.482 4.48 1.264 1.266-5.916 5.916a81.292 81.292 0 0 0-.142-.12 81.292 81.292 0 0 0-1.27-1.058 81.292 81.292 0 0 0-1.805-1.41 81.292 81.292 0 0 0-1.205-.916 81.292 81.292 0 0 0-2.074-1.463 81.292 81.292 0 0 0-1.07-.74 81.292 81.292 0 0 0-2.635-1.668 81.292 81.292 0 0 0-.606-.381 81.292 81.292 0 0 0-3.34-1.893 81.292 81.292 0 0 0-.874-.445 81.292 81.292 0 0 0-2.553-1.285 81.292 81.292 0 0 0-1.223-.555 81.292 81.292 0 0 0-2.275-1.008 81.292 81.292 0 0 0-1.399-.562 81.292 81.292 0 0 0-2.148-.83 81.292 81.292 0 0 0-1.59-.555 81.292 81.292 0 0 0-2.031-.67 81.292 81.292 0 0 0-1.59-.478 81.292 81.292 0 0 0-2.148-.594 81.292 81.292 0 0 0-1.58-.399 81.292 81.292 0 0 0-2.15-.482 81.292 81.292 0 0 0-1.606-.33 81.292 81.292 0 0 0-2.223-.385 81.292 81.292 0 0 0-1.56-.248 81.292 81.292 0 0 0-2.335-.287 81.292 81.292 0 0 0-1.47-.166 81.292 81.292 0 0 0-.74-.066h.08v-9.432h4.845c2.79 0 5.04-2.251 5.04-5.041v-8.98a5.028 5.028 0 0 0-2.22-4.182h-.001a5.032 5.032 0 0 0-.414-.252h-.002a5.03 5.03 0 0 0-.44-.213h-.002a4.983 4.983 0 0 0-.46-.168h-.003a5.034 5.034 0 0 0-.48-.125 5.096 5.096 0 0 0-1.018-.102h-.004zm2.35 46.825a63.407 63.407 0 0 0-3.075.667 63.407 63.407 0 0 1 3.074-.667zm19.269.023a63.407 63.407 0 0 1 .328.057 63.407 63.407 0 0 0-.328-.057zm-28.547 2.133a63.407 63.407 0 0 0-3.502 1.306 63.407 63.407 0 0 1 3.502-1.306zm-8.854 3.523a63.407 63.407 0 0 0-3.482 1.903 63.407 63.407 0 0 1 3.482-1.903zm-8.215 4.801a63.407 63.407 0 0 0-3.289 2.463 63.407 63.407 0 0 1 3.29-2.463zm-7.435 6.006a63.407 63.407 0 0 0-2.897 2.894 63.407 63.407 0 0 1 2.897-2.894zm-6.467 7.076a63.407 63.407 0 0 0-2.437 3.256 63.407 63.407 0 0 1 2.437-3.256zm-5.332 7.979a63.407 63.407 0 0 0-1.918 3.511 63.407 63.407 0 0 1 1.918-3.511zm-4.129 8.851a63.407 63.407 0 0 0-1.305 3.498 63.407 63.407 0 0 1 1.305-3.498zm-2.806 9.752a63.407 63.407 0 0 0-.657 3.016 63.407 63.407 0 0 1 .657-3.016zm124.691 21.88a63.407 63.407 0 0 1-.041.292 63.407 63.407 0 0 1-.379 1.65 63.407 63.407 0 0 0 .018-.09 63.407 63.407 0 0 0 .402-1.851zm-125.348.136a63.407 63.407 0 0 0 .655 3.007 63.407 63.407 0 0 1-.655-3.007zm123.317 8.853a63.407 63.407 0 0 1-.045.196 63.407 63.407 0 0 1-.113.35 63.407 63.407 0 0 1-.522 1.33 63.407 63.407 0 0 0 .115-.368 63.407 63.407 0 0 0 .565-1.508zm-121.16.41a63.407 63.407 0 0 0 1.31 3.516 63.407 63.407 0 0 1-1.31-3.516zm117.806 8.258a63.407 63.407 0 0 1-.72 1.41 63.407 63.407 0 0 0 .26-.566 63.407 63.407 0 0 0 .46-.844zm-114.289.584a63.407 63.407 0 0 0 1.92 3.516 63.407 63.407 0 0 1-1.92-3.516zm109.7 7.512a63.407 63.407 0 0 1-.315.545 63.407 63.407 0 0 1-.096.142 63.407 63.407 0 0 1-.14.176 63.407 63.407 0 0 0 .443-.719 63.407 63.407 0 0 0 .107-.144zm-104.891.717a63.407 63.407 0 0 0 2.445 3.27 63.407 63.407 0 0 1-2.445-3.27zm98.77 7.115a63.407 63.407 0 0 1-.153.19 63.407 63.407 0 0 1-.035.036 63.407 63.407 0 0 1-.856.791 63.407 63.407 0 0 0 1.043-1.017zm-92.759.33a63.407 63.407 0 0 0 2.893 2.89 63.407 63.407 0 0 1-2.893-2.89zm86.311 5.69a63.407 63.407 0 0 1-2.035 1.55 63.407 63.407 0 0 0 2.035-1.55zm-79.252.76a63.407 63.407 0 0 0 3.262 2.44 63.407 63.407 0 0 1-3.262-2.44zm71.736 4.513a63.407 63.407 0 0 1-2.113 1.217 63.407 63.407 0 0 0 1.613-.944 63.407 63.407 0 0 0 .5-.273zm-63.722.84a63.407 63.407 0 0 0 3.472 1.896 63.407 63.407 0 0 1-3.472-1.896zm55.408 3.35a63.407 63.407 0 0 1-1.81.77 63.407 63.407 0 0 0 1.685-.724 63.407 63.407 0 0 0 .125-.047zm-46.57.769a63.407 63.407 0 0 0 3.49 1.3 63.407 63.407 0 0 1-3.49-1.3zm36.37 2.453a97.55 97.55 0 0 1-.117.158 63.407 63.407 0 0 1-.008.002 97.55 97.55 0 0 1-.027.031 63.407 63.407 0 0 1-4.613.846 63.407 63.407 0 0 0 4.766-1.037zm-26.689.336a63.407 63.407 0 0 0 3.086.67 63.407 63.407 0 0 1-3.086-.67zm21.237.797a63.407 63.407 0 0 1-4.967.508v-.153a63.407 63.407 0 0 0 4.967-.355z"/><g id="g796" transform="translate(-113.319 -432.858) scale(3.49086)"><g id="g11171" transform="translate(-17.685 9.602) scale(.93148)"><path style="fill:#a7b7c6;fill-opacity:1;stroke-width:.300237;paint-order:stroke fill markers;stop-color:#000" id="rect556-5" d="M112.661 132.606h4.3v4.23h-4.3z"/><g id="g717-3-4" transform="translate(-7.412 42.884)" style="font-variation-settings:normal;fill:#e4e9f4;fill-opacity:1;stroke-width:.48791;stroke-linecap:butt;stroke-linejoin:miter;stroke-miterlimit:4;stroke-dasharray:none;stroke-dashoffset:0;stroke-opacity:1;paint-order:stroke fill markers;stop-color:#000"><rect style="font-variation-settings:normal;fill:#e4e9f4;fill-opacity:1;stroke-width:.48791;stroke-linecap:butt;stroke-linejoin:miter;stroke-miterlimit:4;stroke-dasharray:none;stroke-dashoffset:0;stroke-opacity:1;paint-order:stroke fill markers;stop-color:#000;stop-opacity:1" id="rect556-3-5-7" width="10.379" height="5.861" x="117.033" y="85.189" ry="1.55"/></g><path id="rect556-3-5-2" style="font-variation-settings:normal;fill:#cdd2df;fill-opacity:1;stroke-width:.48791;stroke-linecap:butt;stroke-linejoin:miter;stroke-miterlimit:4;stroke-dasharray:none;stroke-dashoffset:0;stroke-opacity:1;paint-order:stroke fill markers;stop-color:#000" d="M114.999 128.074c.858 0 1.55.69 1.55 1.549v2.762c0 .858-.692 1.55-1.55 1.55h3.452c.858 0 1.55-.692 1.55-1.55v-2.762c0-.859-.692-1.55-1.55-1.55z"/><circle style="fill:#e4e9f4;fill-opacity:1;stroke-width:.48791;paint-order:stroke fill markers;stop-color:#000" id="path234-6-2-0" cx="114.811" cy="161.743" r="19.5"/><path id="path234-6-2-4" style="fill:#cdd2df;fill-opacity:1;stroke-width:.48791;paint-order:stroke fill markers;stop-color:#000" d="M119.127 142.726a30 30 0 0 1 6.8 19.015 30 30 0 0 1-6.816 19.019 19.5 19.5 0 0 0 15.2-19.019 19.5 19.5 0 0 0-15.184-19.015z"/><path style="fill:#a7b7c6;fill-opacity:1;stroke-width:.300237;paint-order:stroke fill markers;stop-color:#000" id="rect556-5-3" transform="rotate(45)" d="M193.5 4.106h4.3v4.23h-4.3z"/><rect style="font-variation-settings:normal;fill:#cdd2df;fill-opacity:1;stroke-width:.48791;stroke-linecap:butt;stroke-linejoin:miter;stroke-miterlimit:4;stroke-dasharray:none;stroke-dashoffset:0;stroke-opacity:1;paint-order:stroke fill markers;stop-color:#000" id="rect556-3-5-7-8" width="10.379" height="4" x="191.435" y="1.703" ry="1.515" transform="rotate(45)"/><rect style="font-variation-settings:normal;fill:#e4e9f4;fill-opacity:1;stroke-width:.454561;stroke-linecap:butt;stroke-linejoin:miter;stroke-miterlimit:4;stroke-dasharray:none;stroke-dashoffset:0;stroke-opacity:1;paint-order:stroke fill markers;stop-color:#000" id="rect556-3-5-7-8-8" width="9.009" height="4" x="189.486" y="1.703" ry="1.515" transform="rotate(45)"/><rect style="font-variation-settings:normal;fill:#555e6b;fill-opacity:1;stroke-width:.222195;stroke-linecap:butt;stroke-linejoin:miter;stroke-miterlimit:4;stroke-dasharray:none;stroke-dashoffset:0;stroke-opacity:1;paint-order:stroke fill markers;stop-color:#000" id="rect6823-2-6-9" width="9" height="2.274" x="-186.743" y="113.674" ry="1.137" transform="rotate(-90)"/><rect style="font-variation-settings:normal;fill:#555e6b;fill-opacity:1;stroke-width:.222195;stroke-linecap:butt;stroke-linejoin:miter;stroke-miterlimit:4;stroke-dasharray:none;stroke-dashoffset:0;stroke-opacity:1;paint-order:stroke fill markers;stop-color:#000" id="rect6823-2-6-9-8" width="9" height="2.274" x="-145.743" y="113.674" ry="1.137" transform="rotate(-90)"/><rect style="font-variation-settings:normal;fill:#555e6b;fill-opacity:1;stroke-width:.222195;stroke-linecap:butt;stroke-linejoin:miter;stroke-miterlimit:4;stroke-dasharray:none;stroke-dashoffset:0;stroke-opacity:1;paint-order:stroke fill markers;stop-color:#000" id="rect6823-2-6-9-8-7" width="9" height="2.274" x="130.811" y="160.606" ry="1.137"/><rect style="font-variation-settings:normal;fill:#555e6b;fill-opacity:1;stroke-width:.222195;stroke-linecap:butt;stroke-linejoin:miter;stroke-miterlimit:4;stroke-dasharray:none;stroke-dashoffset:0;stroke-opacity:1;paint-order:stroke fill markers;stop-color:#000" id="rect6823-2-6-9-8-7-1" width="9" height="2.274" x="89.811" y="160.606" ry="1.137"/><rect style="font-variation-settings:normal;fill:#2882d2;fill-opacity:1;stroke-width:.263534;stroke-linecap:butt;stroke-linejoin:miter;stroke-miterlimit:4;stroke-dasharray:none;stroke-dashoffset:0;stroke-opacity:1;paint-order:stroke fill markers;stop-color:#000" id="rect6823-2-6-9-8-7-1-7" width="12.66" height="2.274" x="149.495" y="-115.948" ry="1.137" transform="rotate(90)"/><path id="path396-3-6-5-9" style="fill:#fbc361;fill-opacity:1;stroke-width:.883992;paint-order:stroke fill markers;stop-color:#000" d="M114.811 136.743a25 25 0 0 0-25 25 25 25 0 0 0 25 25 25 25 0 0 0 25-25 25 25 0 0 0-25-25zm0 5.5a19.5 19.5 0 0 1 19.5 19.5 19.5 19.5 0 0 1-19.5 19.5 19.5 19.5 0 0 1-19.5-19.5 19.5 19.5 0 0 1 19.5-19.5z"/><path id="path396-3-6-1-4" style="fill:#f1912b;fill-opacity:1;stroke-width:.883992;paint-order:stroke fill markers;stop-color:#000" d="M114.811 136.743a25 25 0 0 0-2.15.102 30 30 0 0 1 6.455 5.88 19.5 19.5 0 0 1 15.195 19.018 19.5 19.5 0 0 1-15.197 19.01 30 30 0 0 1-6.463 5.887 25 25 0 0 0 2.16.103 25 25 0 0 0 25-25 25 25 0 0 0-25-25z"/><circle style="font-variation-settings:normal;fill:#555e6b;fill-opacity:1;stroke-width:.473079;stroke-linecap:butt;stroke-linejoin:miter;stroke-miterlimit:4;stroke-dasharray:none;stroke-dashoffset:0;stroke-opacity:1;paint-order:stroke fill markers;stop-color:#000" id="path7308" cx="114.811" cy="161.743" r="2.5"/></g></g><path id="rect258" style="fill:none" d="M0 0h400v225H0Z"/></svg>