<svg height="36" width="36" xmlns="http://www.w3.org/2000/svg"><path fill="currentColor" d="M36 3v10.5q0 .61-.445 1.055Q35.109 15 34.5 15H24q-.984 0-1.383-.938-.398-.914.328-1.617l3.235-3.234Q22.71 6 18 6q-2.438 0-4.652.95-2.215.948-3.832 2.566-1.618 1.617-2.567 3.832Q6 15.562 6 18t.95 4.652q.948 2.215 2.566 3.832 1.617 1.618 3.832 2.567Q15.562 30 18 30q2.79 0 5.273-1.219 2.485-1.218 4.196-3.445.164-.234.539-.281.328 0 .586.21l3.21 3.235q.212.188.223.48.012.293-.175.528-2.555 3.094-6.188 4.793Q22.031 36 18 36q-3.656 0-6.984-1.43-3.329-1.43-5.743-3.843-2.414-2.415-3.843-5.743Q0 21.656 0 18t1.43-6.984q1.43-3.329 3.843-5.743Q7.688 2.86 11.016 1.43 14.344 0 18 0q3.445 0 6.668 1.3 3.223 1.302 5.73 3.669l3.047-3.024q.68-.726 1.64-.328Q36 2.016 36 3Z" style="font-variation-settings:normal;opacity:1;vector-effect:none;fill:#1a73d9;fill-opacity:.941176;stroke-width:1.8;stroke-linecap:butt;stroke-linejoin:miter;stroke-miterlimit:4;stroke-dasharray:none;stroke-dashoffset:0;stroke-opacity:1;-inkscape-stroke:none;stop-color:#000;stop-opacity:1"/></svg>