<svg height="36" width="36" xmlns="http://www.w3.org/2000/svg"><path fill="currentColor" d="M33.333 21.104V8.271q-3.52 1.896-6.375 1.896-1.708 0-3.02-.667-2.084-1.02-3.834-1.594-1.75-.573-3.708-.573-3.604 0-8.396 2.646v12.48q5.104-2.355 9.02-2.355 1.147 0 2.157.156 1.01.157 2.042.542 1.031.386 1.604.646.573.26 1.719.823l.583.291q.917.459 2.104.459 2.5 0 6.104-1.917zm-28-16.437q0 .729-.364 1.333-.365.604-.969.958v26.375q0 .292-.188.48-.187.187-.479.187H2q-.292 0-.48-.188-.187-.187-.187-.479V6.958Q.73 6.604.365 6T0 4.667Q0 3.563.781 2.78 1.562 2 2.667 2q1.104 0 1.885.781.781.781.781 1.886ZM36 6v15.896q0 .812-.73 1.187-.207.105-.353.188-4.542 2.416-7.688 2.416-1.833 0-3.291-.729l-.584-.291q-1.333-.688-2.062-1-.73-.313-1.896-.605-1.167-.291-2.375-.291-2.125 0-4.906.916-2.782.917-4.76 2.125-.313.188-.688.188-.334 0-.667-.167-.667-.395-.667-1.166V9.208q0-.729.646-1.145.73-.438 1.636-.886.906-.448 2.375-1.083 1.468-.636 3.177-1.032 1.708-.395 3.229-.395 2.333 0 4.354.646 2.02.645 4.354 1.791.792.396 1.854.396 2.542 0 6.459-2.333.458-.25.645-.354.646-.334 1.292.041Q36 5.271 36 6Z" style="font-variation-settings:normal;opacity:1;vector-effect:none;fill:#fff;fill-opacity:1;stroke-width:2;stroke-linecap:butt;stroke-linejoin:miter;stroke-miterlimit:4;stroke-dasharray:none;stroke-dashoffset:0;stroke-opacity:1;-inkscape-stroke:none;stop-color:#000;stop-opacity:1"/></svg>