<?xml version="1.0" encoding="UTF-8" standalone="no"?>
<svg
   height="36"
   width="36"
   version="1.1"
   id="svg1"
   sodipodi:docname="button-music-inactive-blue.svg"
   inkscape:version="1.3.2 (091e20ef0f, 2023-11-25)"
   xmlns:inkscape="http://www.inkscape.org/namespaces/inkscape"
   xmlns:sodipodi="http://sodipodi.sourceforge.net/DTD/sodipodi-0.dtd"
   xmlns="http://www.w3.org/2000/svg"
   xmlns:svg="http://www.w3.org/2000/svg">
  <defs
     id="defs1" />
  <sodipodi:namedview
     id="namedview1"
     pagecolor="#ffffff"
     bordercolor="#666666"
     borderopacity="1.0"
     inkscape:showpageshadow="2"
     inkscape:pageopacity="0.0"
     inkscape:pagecheckerboard="0"
     inkscape:deskcolor="#d1d1d1"
     showgrid="false"
     inkscape:zoom="2.0402977"
     inkscape:cx="158.80036"
     inkscape:cy="99.740347"
     inkscape:window-width="1920"
     inkscape:window-height="1011"
     inkscape:window-x="0"
     inkscape:window-y="0"
     inkscape:window-maximized="1"
     inkscape:current-layer="svg1" />
  <path
     id="path1-5"
     style="font-variation-settings:normal;opacity:1;vector-effect:none;fill:#1a73d9;fill-opacity:0.941176;stroke-width:1.8;stroke-linecap:butt;stroke-linejoin:miter;stroke-miterlimit:4;stroke-dasharray:none;stroke-dashoffset:0;stroke-opacity:1;-inkscape-stroke:none;stop-color:#000000;stop-opacity:1"
     d="M 32.539062 0 C 32.308293 0 32.10667 0.028250949 31.933594 0.0859375 L 13.933594 5.625 C 13.500905 5.7692338 13.147084 6.0247876 12.873047 6.3925781 C 12.599004 6.7603615 12.460937 7.1681212 12.460938 7.6152344 L 12.460938 10.515625 L 1.9570312 0.060546875 L 0.068359375 1.9726562 L 34.318359 36.060547 L 36.207031 34.150391 L 31.701172 29.666016 C 31.807222 29.625333 31.913373 29.586862 32.019531 29.542969 C 32.76953 29.232871 33.38852 28.794918 33.878906 28.232422 C 34.369288 27.669924 34.615234 27.029749 34.615234 26.308594 L 34.615234 2.0761719 C 34.615234 1.4992497 34.41361 1.0093133 34.009766 0.60546875 C 33.605919 0.20162289 33.115985 0 32.539062 0 z M 31.845703 11.378906 L 31.845703 22.998047 C 30.590899 22.435543 29.205828 22.154297 27.691406 22.154297 C 27.042375 22.154297 26.348255 22.229414 25.605469 22.380859 C 25.281526 22.446904 24.956397 22.530506 24.630859 22.626953 L 17.712891 15.742188 L 31.845703 11.378906 z M 12.460938 18.09375 L 12.460938 28.535156 C 11.206132 27.972654 9.823015 27.691406 8.3085938 27.691406 C 7.6595617 27.691406 6.9634897 27.768476 6.2207031 27.919922 C 5.4779107 28.071362 4.7304679 28.30123 3.9804688 28.611328 C 3.2304702 28.92142 2.6114741 29.357418 2.1210938 29.919922 C 1.6307073 30.482418 1.3847656 31.124554 1.3847656 31.845703 C 1.3847656 32.566858 1.6307073 33.208987 2.1210938 33.771484 C 2.6114741 34.333982 3.2304702 34.76998 3.9804688 35.080078 C 4.7304679 35.390176 5.4779107 35.621998 6.2207031 35.773438 C 6.9634897 35.924876 7.6595617 36 8.3085938 36 C 8.9576331 36 9.651746 35.924876 10.394531 35.773438 C 11.137319 35.621998 11.884766 35.390176 12.634766 35.080078 C 13.384764 34.76998 14.005707 34.333982 14.496094 33.771484 C 14.986474 33.208987 15.230469 32.566858 15.230469 31.845703 L 15.230469 20.849609 L 12.460938 18.09375 z M 20.775391 26.369141 C 20.789125 27.065056 21.027662 27.686145 21.503906 28.232422 C 21.994288 28.794918 22.615236 29.232871 23.365234 29.542969 C 23.680869 29.673473 23.996188 29.786268 24.310547 29.888672 L 20.775391 26.369141 z " />
</svg>
