<svg viewBox="-10 0 32 32" width="32" height="32" xmlns="http://www.w3.org/2000/svg"><g style="fill:#1a73d9;font-variation-settings:normal;opacity:1;vector-effect:none;fill-opacity:.941176;stroke-width:84.93751194;stroke-linecap:butt;stroke-linejoin:miter;stroke-miterlimit:4;stroke-dasharray:none;stroke-dashoffset:0;stroke-opacity:1;-inkscape-stroke:none;stop-color:#000;stop-opacity:1"><path fill="currentColor" d="M768 576V128q0-26-19-45t-45-19q-26 0-45 19L515 227 183-105q-10-10-23-10t-23 10L23 9Q13 19 13 32t10 23l332 332-144 144q-19 19-19 45t19 45q19 19 45 19h448q26 0 45-19t19-45zm755 672q0-13-10-23l-332-332 144-144q19-19 19-45t-19-45q-19-19-45-19H832q-26 0-45 19t-19 45v448q0 26 19 45t45 19q26 0 45-19l144-144 332 332q10 10 23 10t23-10l114-114q10-10 10-23z" style="fill:#1a73d9;font-variation-settings:normal;vector-effect:none;fill-opacity:.941176;stroke-width:84.93751194;stroke-linecap:butt;stroke-linejoin:miter;stroke-miterlimit:4;stroke-dasharray:none;stroke-dashoffset:0;stroke-opacity:1;-inkscape-stroke:none;stop-color:#000;stop-opacity:1" transform="matrix(.0212 0 0 -.0212 -10.275 29.563)"/></g></svg>