<svg height="36" width="36" xmlns="http://www.w3.org/2000/svg"><path fill="currentColor" d="M36 1.5v33q0 .61-.445 1.055Q35.109 36 34.5 36h-12q-.61 0-1.055-.445Q21 35.109 21 34.5v-33q0-.61.445-1.055Q21.891 0 22.5 0h12q.61 0 1.055.445Q36 .891 36 1.5Zm-21 0v33q0 .61-.445 1.055Q14.109 36 13.5 36h-12q-.61 0-1.055-.445Q0 35.109 0 34.5v-33Q0 .89.445.445.891 0 1.5 0h12q.61 0 1.055.445Q15 .891 15 1.5Z" style="font-variation-settings:normal;opacity:1;vector-effect:none;fill:#1a73d9;fill-opacity:.941176;stroke-width:1.8;stroke-linecap:butt;stroke-linejoin:miter;stroke-miterlimit:4;stroke-dasharray:none;stroke-dashoffset:0;stroke-opacity:1;-inkscape-stroke:none;stop-color:#000;stop-opacity:1"/></svg>