<?xml version="1.0" encoding="UTF-8" standalone="no"?>
<svg
   height="36"
   width="36"
   version="1.1"
   id="svg1"
   sodipodi:docname="button-music-active-icon-grey.svg"
   inkscape:version="1.3.2 (091e20ef0f, 2023-11-25)"
   xmlns:inkscape="http://www.inkscape.org/namespaces/inkscape"
   xmlns:sodipodi="http://sodipodi.sourceforge.net/DTD/sodipodi-0.dtd"
   xmlns="http://www.w3.org/2000/svg"
   xmlns:svg="http://www.w3.org/2000/svg">
  <defs
     id="defs1" />
  <sodipodi:namedview
     id="namedview1"
     pagecolor="#ffffff"
     bordercolor="#666666"
     borderopacity="1.0"
     inkscape:showpageshadow="2"
     inkscape:pageopacity="0.0"
     inkscape:pagecheckerboard="0"
     inkscape:deskcolor="#d1d1d1"
     showgrid="false"
     inkscape:zoom="5.7708333"
     inkscape:cx="76.418773"
     inkscape:cy="31.971119"
     inkscape:window-width="1920"
     inkscape:window-height="1043"
     inkscape:window-x="0"
     inkscape:window-y="0"
     inkscape:window-maximized="1"
     inkscape:current-layer="svg1" />
  <path
     fill="currentColor"
     d="M 34.615386,2.0769175 V 26.307688 q 0,1.081736 -0.735573,1.925484 -0.735581,0.843747 -1.860581,1.308894 -1.125,0.465149 -2.239181,0.69231 -1.114182,0.227159 -2.087743,0.227159 -0.97355,0 -2.087732,-0.227159 -1.11419,-0.22716 -2.239191,-0.69231 -1.125,-0.465147 -1.860573,-1.308894 -0.735581,-0.843748 -0.735581,-1.925484 0,-1.081726 0.735581,-1.925474 0.735573,-0.843756 1.860573,-1.308895 1.125001,-0.465148 2.239191,-0.692307 1.114182,-0.22717 2.087732,-0.22717 2.271637,0 4.153847,0.843757 V 11.379808 l -16.615387,5.127406 v 15.338937 q 0,1.081735 -0.735572,1.925484 -0.735581,0.843747 -1.860581,1.308894 -1.125,0.465148 -2.239182,0.692308 -1.1141805,0.22716 -2.0877415,0.22716 -0.97355,0 -2.087732,-0.22716 -1.114191,-0.22716 -2.239192,-0.692308 -1.125,-0.465147 -1.860572,-1.308894 -0.735581,-0.843749 -0.735581,-1.925484 0,-1.081727 0.735581,-1.925474 0.735572,-0.843757 1.860572,-1.308896 1.125001,-0.465147 2.239192,-0.692307 1.114182,-0.227169 2.087732,-0.227169 2.2716365,0 4.1538475,0.843756 V 7.6153795 q 0,-0.670671 0.411064,-1.222347 0.411056,-0.551687 1.06009,-0.768038 l 18,-5.538462 q 0.259615,-0.08653 0.605771,-0.08653 0.865384,0 1.471154,0.60577 0.605768,0.605768 0.605768,1.471153 z"
     id="path1-5"
     style="font-variation-settings:normal;opacity:1;vector-effect:none;fill:#808080;fill-opacity:0.941176;stroke-width:2;stroke-linecap:butt;stroke-linejoin:miter;stroke-miterlimit:4;stroke-dasharray:none;stroke-dashoffset:0;stroke-opacity:1;-inkscape-stroke:none;stop-color:#000000;stop-opacity:1" />
</svg>
