<svg viewBox="-10 0 32 32" width="32" height="32" xmlns="http://www.w3.org/2000/svg"><g style="fill:#1a73d9;font-variation-settings:normal;opacity:1;vector-effect:none;fill-opacity:.941176;stroke-width:86.40001382;stroke-linecap:butt;stroke-linejoin:miter;stroke-miterlimit:4;stroke-dasharray:none;stroke-dashoffset:0;stroke-opacity:1;-inkscape-stroke:none;stop-color:#000;stop-opacity:1"><path fill="currentColor" d="M755 480q0-13-10-23L413 125 557-19q19-19 19-45t-19-45q-19-19-45-19H64q-26 0-45 19T0-64v448q0 26 19 45t45 19q26 0 45-19l144-144 332 332q10 10 23 10t23-10l114-114q10-10 10-23zm781 864V896q0-26-19-45t-45-19q-26 0-45 19l-144 144-332-332q-10-10-23-10t-23 10L791 777q-10 10-10 23t10 23l332 332-144 144q-19 19-19 45t19 45q19 19 45 19h448q26 0 45-19t19-45z" style="fill:#1a73d9;font-variation-settings:normal;vector-effect:none;fill-opacity:.941176;stroke-width:86.40001382;stroke-linecap:butt;stroke-linejoin:miter;stroke-miterlimit:4;stroke-dasharray:none;stroke-dashoffset:0;stroke-opacity:1;-inkscape-stroke:none;stop-color:#000;stop-opacity:1" transform="matrix(.02083 0 0 -.02083 -10 29.333)"/></g></svg>